<?xml version="1.0" encoding="utf-8"?>
<!-- Generator: Adobe Illustrator 15.0.0, SVG Export Plug-In . SVG Version: 6.00 Build 0)  -->
<!DOCTYPE svg PUBLIC "-//W3C//DTD SVG 1.1//EN" "http://www.w3.org/Graphics/SVG/1.1/DTD/svg11.dtd">
<svg version="1.1" id="Layer_1" xmlns="http://www.w3.org/2000/svg" xmlns:xlink="http://www.w3.org/1999/xlink" x="0px" y="0px"
	 width="819.261px" height="1292.503px" viewBox="0 0 819.261 1292.503" enable-background="new 0 0 819.261 1292.503"
	 xml:space="preserve">
<g id="Vertical_2_">
	<g id="SnakeHead">
		<g>
			<path fill="#98CA3E" d="M560.402,44.463c-16.392-7.184-32.71-12.154-48.855-15.14c-11.653-2.155-23.191-3.184-34.548-3.184
				c-57.684,0-110.933,26.514-153.756,66.656c-51.972,48.717-139.868,148.394-34.464,192.832
				c30.689,12.938,64.613,19.823,98.357,19.823c22.855,0,45.629-3.158,67.259-9.732c25.302-7.69,49.083-19.972,70.153-35.936
				c5.845-4.429,25.929-21.906,34.705-40.61c0,0,0.69,35.218-15.882,75.96c-16.014,39.365-62.804,91.746-62.804,91.746
				l107.294,91.59c0.387,0.429,0.764,0.868,1.15,1.297c0.097,0.107,0.197,0.211,0.295,0.318
				c14.686-22.088,27.932-45.433,38.98-70.161C682.225,289.203,708.019,109.157,560.402,44.463z"/>
			<path fill="#231F20" d="M680.431,132.88c-9.502-24.59-23.154-46.383-40.578-64.774c-18.66-19.699-41.862-35.708-68.958-47.583
				c-17.829-7.813-36.197-13.5-54.596-16.902C503.31,1.218,490.087,0,476.999,0c-31.492,0-62.842,6.924-93.179,20.578
				c-27.771,12.5-54.167,30.38-78.454,53.147c-26.102,24.467-47.053,48.208-62.273,70.562
				c-24.032,35.297-33.667,67.45-28.636,95.564c2.732,15.268,9.668,29.017,20.617,40.865c10.686,11.564,25.337,21.32,43.549,28.998
				c33.945,14.312,71.468,21.876,108.512,21.876c25.959,0,51.146-3.655,74.86-10.862c17.602-5.35,34.504-12.632,50.529-21.757
				c-14.845,27.025-41.1,58.903-51.452,70.494c-4.687,5.246-7.061,12.16-6.585,19.178c0.475,7.018,3.758,13.549,9.108,18.116
				l105.91,90.408c0.026,0.029,0.053,0.059,0.079,0.088c0.159,0.176,0.327,0.358,0.495,0.539c4.967,5.391,11.948,8.429,19.224,8.429
				c0.659,0,1.318-0.025,1.98-0.075c8.03-0.609,15.331-4.886,19.789-11.592c16.241-24.428,30.062-49.315,41.079-73.97
				c14.397-32.223,33.219-82.751,41.118-140.475C700.916,224.244,696.597,174.708,680.431,132.88z M587.861,478.469l-107.294-91.59
				c0,0,46.79-52.38,62.804-91.746c16.572-40.742,15.882-75.96,15.882-75.96c-8.776,18.705-28.86,36.182-34.705,40.61
				c-21.069,15.963-44.851,28.246-70.153,35.936c-21.63,6.574-44.404,9.732-67.259,9.732c-33.744,0-67.668-6.885-98.357-19.823
				c-105.404-44.438-17.507-144.115,34.464-192.832c42.824-40.143,96.072-66.656,153.756-66.656c11.356,0,22.895,1.029,34.548,3.184
				c16.146,2.986,32.464,7.956,48.855,15.14c147.617,64.694,121.823,244.74,67.885,365.46
				c-11.049,24.729-24.295,48.073-38.98,70.161c-0.098-0.107-0.198-0.211-0.295-0.318
				C588.625,479.336,588.248,478.898,587.861,478.469z"/>
		</g>
		<g>
			<path fill="#80B041" d="M534.423,410.577c2.577-6.283,5.068-12.601,7.451-18.96c10.6-28.28,19.318-57.458,23.987-87.338
				c1.743-15.527,2.226-31.203,0.729-46.759c-1.46-8.319-3.567-16.502-6.448-24.44c-0.439-0.909-0.908-1.803-1.37-2.701
				c-1.073,13.569-4.503,37.959-15.401,64.753c-16.014,39.365-62.804,91.746-62.804,91.746l46.679,39.847
				C529.695,421.369,532.092,415.988,534.423,410.577z"/>
		</g>
		<g>
			<circle fill="#231F20" cx="429.46" cy="212.767" r="36.112"/>
		</g>
	</g>
	<g id="Cookie_1_">
		<g display="none">
			<g display="inline">
				<g>
					<path fill="#FFFFFF" d="M405.302,675.082c-0.981,0-1.975-0.046-2.952-0.139l-42.164-3.967
						c-8.396-0.79-15.974-4.809-21.338-11.317c-5.363-6.509-7.859-14.716-7.029-23.109l3.568-36.093
						c1.6-16.184,15.075-28.388,31.344-28.388c5.706,0,11.327,1.576,16.258,4.558l44.542,26.941
						c13.635,8.247,18.954,25.41,12.373,39.922l-5.948,13.118C428.868,667.831,417.621,675.082,405.302,675.082z"/>
				</g>
				<g>
					<g>
						<path fill="#FFFFFF" d="M366.732,589.015c2.517,0,5.092,0.664,7.487,2.112l44.542,26.941
							c6.295,3.808,8.749,11.723,5.71,18.423l-5.949,13.119c-2.369,5.225-7.566,8.525-13.22,8.525c-0.453,0-0.908-0.021-1.366-0.064
							l-42.163-3.967c-8.012-0.753-13.884-7.879-13.092-15.887l3.569-36.093C353.027,594.282,359.645,589.016,366.732,589.015
							 M366.733,555.124h-0.002h-0.002c-11.702,0.001-23.018,4.244-31.863,11.948c-9.318,8.115-15.122,19.379-16.341,31.718
							l-3.569,36.093c-1.277,12.912,2.564,25.538,10.816,35.552s19.91,16.198,32.829,17.413l42.163,3.967
							c1.506,0.142,3.032,0.213,4.54,0.213c18.953,0,36.258-11.156,44.087-28.42l5.949-13.119
							c10.124-22.328,1.94-48.732-19.037-61.42l-44.542-26.94C384.183,557.545,375.529,555.124,366.733,555.124L366.733,555.124z"/>
					</g>
				</g>
			</g>
			<g display="inline">
				<g>
					<path fill="#FFFFFF" d="M205.637,750.146c-10.154,0-19.416-5.146-24.776-13.763l-16.118-25.912
						c-5.32-8.553-5.872-19.068-1.476-28.132c4.396-9.063,12.997-15.14,23.008-16.257l43.529-4.854
						c1.074-0.12,2.165-0.181,3.243-0.181c13.619,0,25.293,9.267,28.391,22.536l2.754,11.803
						c2.828,12.112-2.348,24.699-12.879,31.319l-30.165,18.964C216.49,748.599,211.126,750.146,205.637,750.146z"/>
				</g>
				<g>
					<g>
						<path fill="#FFFFFF" d="M233.047,677.995c5.612,0,10.586,3.862,11.889,9.442l2.755,11.802
							c1.185,5.077-0.982,10.347-5.396,13.121l-30.166,18.964c-2.021,1.271-4.27,1.876-6.491,1.876
							c-4.082,0-8.072-2.044-10.387-5.767l-16.118-25.912c-4.746-7.63,0.091-17.602,9.021-18.597l43.529-4.854
							C232.14,678.02,232.596,677.995,233.047,677.995 M233.047,644.103c-1.702,0-3.424,0.096-5.118,0.285l-43.532,4.854
							c-15.828,1.765-29.426,11.373-36.377,25.701c-6.951,14.329-6.079,30.957,2.333,44.479l16.118,25.913
							c8.474,13.623,23.115,21.757,39.166,21.757c8.685,0,17.167-2.446,24.528-7.074l30.166-18.964
							c16.649-10.467,24.833-30.366,20.363-49.518l-2.755-11.802c-2.366-10.137-8.168-19.271-16.339-25.717
							C253.499,647.624,243.358,644.103,233.047,644.103L233.047,644.103z"/>
					</g>
				</g>
			</g>
			<g display="inline">
				<g>
					<path fill="#FFFFFF" d="M195.733,609.643c-12.759,0-24.276-8.055-28.658-20.044l-4.675-12.793
						c-4.992-13.658,0.412-29.041,12.848-36.576l46.255-28.03c4.773-2.893,10.236-4.422,15.799-4.422
						c11.671,0,22.148,6.488,27.342,16.932l13.792,27.734c4.171,8.389,4.283,18.066,0.304,26.549
						c-3.979,8.483-11.491,14.584-20.609,16.74l-55.372,13.089C200.457,609.367,198.092,609.643,195.733,609.643z"/>
				</g>
				<g>
					<g>
						<path fill="#FFFFFF" d="M237.303,524.724c4.967,0,9.781,2.73,12.169,7.532l13.792,27.734
							c3.893,7.828-0.522,17.241-9.03,19.252l-55.372,13.089c-1.045,0.248-2.095,0.366-3.129,0.366
							c-5.585,0-10.75-3.466-12.741-8.916l-4.675-12.793c-2.226-6.091,0.168-12.906,5.714-16.266l46.255-28.031
							C232.491,525.355,234.915,524.724,237.303,524.724 M237.304,490.832h-0.001h-0.001c-8.66,0.001-17.16,2.378-24.58,6.875
							l-46.256,28.031c-19.34,11.72-27.744,35.643-19.981,56.884l4.675,12.793c6.815,18.646,24.728,31.174,44.574,31.174
							c3.671,0,7.347-0.429,10.927-1.275l55.371-13.089c14.181-3.353,25.864-12.841,32.052-26.034
							c6.189-13.193,6.017-28.243-0.472-41.291l-13.792-27.734C271.741,500.922,255.451,490.832,237.304,490.832L237.304,490.832z"
							/>
					</g>
				</g>
			</g>
			<g display="inline">
				<g>
					<path fill="#FFFFFF" d="M536.441,549.325c-2.05,0-4.112-0.209-6.13-0.622l-50.347-10.284
						c-8.143-1.663-15.098-6.433-19.584-13.43c-4.486-6.998-5.916-15.309-4.028-23.404l5.655-24.242
						c3.24-13.888,15.457-23.588,29.71-23.588c2.572,0,5.146,0.328,7.648,0.975l46.568,12.039
						c14.437,3.732,24.014,17.226,22.773,32.084l-1.876,22.487C565.521,537.033,552.171,549.325,536.441,549.325z"/>
				</g>
				<g>
					<g>
						<path fill="#FFFFFF" d="M491.716,470.701c1.125,0,2.268,0.141,3.408,0.436l46.568,12.039
							c6.4,1.655,10.678,7.681,10.128,14.269l-1.876,22.487c-0.598,7.165-6.612,12.447-13.504,12.447
							c-0.901,0-1.816-0.09-2.738-0.278l-50.347-10.284c-7.489-1.529-12.237-8.938-10.501-16.381l5.655-24.242
							C479.974,474.918,485.564,470.702,491.716,470.701 M491.718,436.81h-0.002h-0.002c-10.541,0-20.928,3.585-29.245,10.093
							c-8.49,6.643-14.515,16.086-16.965,26.591l-5.655,24.241c-2.895,12.407-0.611,25.673,6.264,36.399
							c6.875,10.725,17.978,18.338,30.459,20.888l50.347,10.284c3.133,0.64,6.336,0.964,9.521,0.964
							c11.811,0,23.139-4.383,31.9-12.342c8.914-8.098,14.375-19.17,15.377-31.179l1.877-22.487
							c1.928-23.11-12.969-44.096-35.42-49.9l-46.568-12.038C499.719,437.319,495.72,436.81,491.718,436.81L491.718,436.81z"/>
					</g>
				</g>
			</g>
			<g display="inline">
				<g>
					<path fill="#FFFFFF" d="M528.767,732.264c-5.607,0-11.104-1.546-15.896-4.472l-29.746-18.165
						c-12.074-7.373-17.48-21.928-13.146-35.396l21.09-65.537c4.075-12.666,15.754-21.175,29.062-21.175
						c4.589,0,9.024,1.011,13.183,3.004l54.09,25.936c8.396,4.025,14.419,11.534,16.53,20.602c2.109,9.067,0.02,18.465-5.736,25.782
						l-45.435,57.767C546.938,728.017,538.192,732.264,528.767,732.264z"/>
				</g>
				<g>
					<g>
						<path fill="#FFFFFF" d="M520.13,604.465c1.959,0,3.955,0.427,5.857,1.339l54.089,25.935c7.833,3.755,10.171,13.801,4.8,20.629
							l-45.434,57.767c-2.658,3.38-6.635,5.183-10.676,5.183c-2.422,0-4.867-0.647-7.065-1.99l-29.745-18.163
							c-5.352-3.268-7.768-9.774-5.848-15.742l21.091-65.538C509.074,608.063,514.448,604.466,520.13,604.465 M520.131,570.574
							L520.131,570.574h-0.005c-20.691,0.001-38.852,13.235-45.189,32.93l-21.09,65.538c-6.74,20.945,1.668,43.582,20.445,55.048
							l29.746,18.164c7.453,4.551,16.004,6.956,24.729,6.956c14.656,0,28.257-6.605,37.315-18.123l45.434-57.767
							c8.951-11.381,12.203-25.997,8.921-40.1c-3.281-14.103-12.651-25.781-25.707-32.041l-54.09-25.935
							C534.175,572.145,527.276,570.574,520.131,570.574L520.131,570.574z"/>
					</g>
				</g>
			</g>
			<g display="inline">
				<g>
					<path fill="#FFFFFF" d="M352.228,834.143c-4.865,0-9.721-1.184-14.043-3.424l-51.184-26.538
						c-8.74-4.531-14.783-13.055-16.167-22.8c-1.385-9.746,2.046-19.615,9.177-26.401l28.055-26.694
						c5.7-5.423,13.168-8.41,21.028-8.41c9.575,0,18.714,4.575,24.445,12.238l32.881,43.949c9.258,12.375,7.796,29.739-3.398,40.392
						l-9.754,9.279C367.569,831.156,360.097,834.143,352.228,834.143z"/>
				</g>
				<g>
					<g>
						<path fill="#FFFFFF" d="M329.093,736.821c4.11-0.001,8.191,1.852,10.877,5.442l32.881,43.95
							c4.12,5.507,3.47,13.224-1.512,17.964l-9.752,9.279c-2.583,2.458-5.952,3.74-9.359,3.74c-2.126,0-4.268-0.499-6.244-1.523
							l-51.183-26.537c-8.276-4.291-9.862-15.456-3.108-21.882l28.054-26.693C322.388,738.047,325.75,736.821,329.093,736.821
							 M329.094,702.93h-0.001h-0.001c-12.229,0.001-23.844,4.646-32.707,13.079l-28.055,26.693
							c-11.091,10.554-16.427,25.903-14.274,41.062s11.554,28.414,25.146,35.461l51.183,26.537
							c6.722,3.484,14.275,5.327,21.843,5.327c12.237,0,23.858-4.646,32.722-13.079l9.752-9.279
							c17.412-16.568,19.685-43.574,5.287-62.819l-32.882-43.95C358.192,710.044,343.981,702.93,329.094,702.93L329.094,702.93z"/>
					</g>
				</g>
			</g>
		</g>
		<path fill="#D59D29" d="M494.236,360.389c-0.84-0.337-1.689-0.673-2.548-1.007c-12.354,16.195-30.457,27.08-50.487,30.411
			c0.001,0.166,0.002,0.331,0.002,0.496c0,44.062-35.847,79.909-79.908,79.909c-30.699,0-57.954-17.167-71.35-43.839
			c-6.045,1.442-12.256,2.169-18.573,2.169c-18.104,0-35.645-6.212-49.686-17.344c-53.819,46.667-85.419,110.295-89.294,180.35
			c-3.84,69.401,19.512,136.614,65.753,189.257c13.273,15.111,27.986,28.496,43.848,40.035c30.358,2.988,60.751,4.744,91.19,2.406
			c12.758-0.98,25.496-2.557,38.183-4.362l-39.315-20.383c-8.861-4.595-10.559-16.549-3.328-23.429l30.037-28.581
			c6.307-6.001,16.438-5.147,21.653,1.822l35.206,47.058c3.412,4.561,3.755,10.53,1.274,15.353
			c7.633-1.943,15.178-4.232,22.596-6.883c3.853-1.377,7.667-2.854,11.451-4.409c14.488-5.955,29.091-11.817,43.287-18.473
			c15.628-7.327,30.133-16.429,44.357-26.155c21.588-14.764,42.582-30.666,62.361-47.763c12.133-10.486,23.369-21.996,33.303-34.593
			c8.812-11.177,17.486-22.182,25.59-33.54c0.701-5.652,1.242-11.355,1.583-17.115c0.909-15.397,0.489-30.901-1.249-46.082
			C649.335,481.087,584.201,396.574,494.236,360.389z M268.922,687.467l-32.298,20.304c-6.138,3.858-14.243,1.99-18.072-4.166
			l-17.257-27.744c-5.082-8.169,0.097-18.846,9.659-19.912l46.606-5.197c6.587-0.735,12.683,3.574,14.19,10.028l2.949,12.637
			C275.968,678.854,273.648,684.496,268.922,687.467z M287.073,522.798l-59.286,14.015c-7.165,1.694-14.465-2.239-16.992-9.154
			l-5.005-13.698c-2.384-6.521,0.179-13.817,6.117-17.416l49.525-30.012c7.272-4.406,16.757-1.656,20.543,5.958l14.767,29.694
			C300.91,510.566,296.182,520.644,287.073,522.798z M429.197,619.61l-6.369,14.046c-2.74,6.042-9.012,9.681-15.617,9.059
			l-45.143-4.247c-8.578-0.807-14.865-8.436-14.017-17.011l3.821-38.645c1.125-11.379,13.736-17.692,23.521-11.774l47.691,28.845
			C429.824,603.961,432.45,612.435,429.197,619.61z M492.244,496.828c-8.018-1.637-13.104-9.569-11.244-17.539l6.056-25.955
			c1.854-7.947,9.888-12.81,17.788-10.768l49.86,12.889c6.853,1.772,11.433,8.224,10.844,15.278l-2.009,24.077
			c-0.724,8.675-8.86,14.771-17.39,13.029L492.244,496.828z M600.941,636.608l-48.646,61.851
			c-4.551,5.787-12.711,7.256-18.995,3.419l-31.849-19.448c-5.728-3.498-8.315-10.464-6.26-16.854l22.582-70.17
			c2.697-8.384,12.174-12.46,20.115-8.652l57.912,27.768C604.187,618.543,606.69,629.298,600.941,636.608z"/>
		<path fill="#A57F48" d="M600.945,707.026c-19.779,17.097-40.773,32.999-62.361,47.763c-14.225,9.727-28.729,18.828-44.357,26.155
			c-14.195,6.655-28.799,12.518-43.287,18.473c-3.784,1.556-7.598,3.032-11.451,4.409c-7.417,2.65-14.962,4.939-22.596,6.883
			c-0.727,1.412-1.684,2.73-2.893,3.881l-10.442,9.936c-4.492,4.274-11.201,5.228-16.706,2.373l-15.486-8.029
			c-12.687,1.806-25.424,3.382-38.183,4.362c-30.439,2.338-60.832,0.582-91.19-2.406c39.401,28.664,85.927,45.892,135.341,49.539
			c6.598,0.486,13.279,0.733,19.858,0.733c134.136,0,246.341-100.682,262.645-232.205c-8.104,11.358-16.777,22.363-25.59,33.54
			C624.314,685.03,613.078,696.54,600.945,707.026z"/>
		<g>
			<path fill="#231F20" d="M686.14,572.721c-11.912-104.005-83.41-196.87-182.152-236.584c-4.223-1.699-8.679-3.358-13.242-4.934
				l-10.331-3.565l-5.339,9.536c-9.515,16.999-27.503,27.559-46.923,27.559l-0.274-0.009c-0.23-0.008-0.46-0.015-0.691-0.02
				l-16.079-0.297l2.997,15.8c0.636,3.353,0.958,6.744,0.958,10.081c0,29.648-24.121,53.769-53.769,53.769
				c-23.686,0-44.323-15.178-51.352-37.77l-4.29-13.79l-13.294,5.642c-6.643,2.819-13.704,4.248-20.987,4.248
				c-15.008,0-29.446-6.349-39.611-17.419l-8.255-8.99l-9.532,7.621c-31.403,25.104-56.698,55.386-75.184,90.006
				c-19.285,36.12-30.22,75.312-32.497,116.484c-4.22,76.281,21.426,150.132,72.214,207.952
				c50.792,57.825,120.721,92.769,196.905,98.393c7.235,0.533,14.564,0.804,21.781,0.804c153.717,0,281.242-120.318,290.321-273.916
				C688.513,606.42,688.05,589.396,686.14,572.721z M397.192,871.098c-6.579,0-13.26-0.247-19.858-0.733
				c-49.415-3.647-95.94-20.875-135.341-49.539c-15.862-11.539-30.575-24.924-43.848-40.035
				c-46.241-52.644-69.593-119.856-65.753-189.257c3.875-70.055,35.475-133.683,89.294-180.35
				c14.041,11.132,31.582,17.344,49.686,17.344c6.317,0,12.528-0.727,18.573-2.169c13.396,26.672,40.65,43.839,71.35,43.839
				c44.062,0,79.908-35.847,79.908-79.909c0-0.165,0-0.33-0.002-0.496c20.03-3.331,38.133-14.216,50.487-30.411
				c0.858,0.334,1.708,0.67,2.548,1.007c89.965,36.185,155.1,120.698,165.936,215.307c1.738,15.181,2.158,30.685,1.249,46.082
				c-0.341,5.76-0.882,11.463-1.583,17.115C643.534,770.416,531.329,871.098,397.192,871.098z"/>
		</g>
		<path fill="#492B15" d="M271.75,660.781c-1.507-6.455-7.603-10.763-14.19-10.028l-46.606,5.197
			c-9.562,1.066-14.741,11.742-9.659,19.912l17.257,27.744c3.829,6.156,11.934,8.024,18.072,4.166l32.298-20.304
			c4.726-2.971,7.046-8.613,5.777-14.049L271.75,660.781z"/>
		<path fill="#492B15" d="M281.975,472.491c-3.786-7.613-13.271-10.364-20.543-5.958l-49.525,30.012
			c-5.938,3.599-8.501,10.895-6.117,17.416l5.005,13.698c2.527,6.915,9.827,10.848,16.992,9.154l59.286-14.015
			c9.109-2.154,13.837-12.231,9.669-20.613L281.975,472.491z"/>
		<path fill="#492B15" d="M416.057,810.93c0.28-0.07,0.557-0.149,0.836-0.221c2.481-4.822,2.138-10.792-1.274-15.353l-35.206-47.058
			c-5.214-6.97-15.346-7.823-21.653-1.822l-30.037,28.581c-7.231,6.88-5.533,18.834,3.328,23.429l39.315,20.383
			c6.917-0.984,13.819-2.034,20.701-3.101C400.132,814.521,408.142,812.915,416.057,810.93z"/>
		<path fill="#492B15" d="M403.559,824.525L414,814.59c1.208-1.15,2.166-2.469,2.893-3.881c-0.279,0.071-0.556,0.15-0.836,0.221
			c-7.916,1.985-15.925,3.591-23.99,4.839c-6.882,1.066-13.785,2.116-20.701,3.101l15.486,8.029
			C392.357,829.753,399.066,828.8,403.559,824.525z"/>
		<path fill="#492B15" d="M423.083,599.884l-47.691-28.845c-9.784-5.918-22.395,0.395-23.521,11.774l-3.821,38.645
			c-0.848,8.575,5.438,16.204,14.017,17.011l45.143,4.247c6.605,0.622,12.877-3.017,15.617-9.059l6.369-14.046
			C432.45,612.435,429.824,603.961,423.083,599.884z"/>
		<path fill="#492B15" d="M563.539,494.81l2.009-24.077c0.589-7.054-3.991-13.506-10.844-15.278l-49.86-12.889
			c-7.9-2.042-15.934,2.82-17.788,10.768L481,479.289c-1.859,7.97,3.227,15.902,11.244,17.539l53.905,11.011
			C554.678,509.582,562.815,503.485,563.539,494.81z"/>
		<path fill="#492B15" d="M595.8,614.521l-57.912-27.768c-7.941-3.808-17.418,0.268-20.115,8.652l-22.582,70.17
			c-2.056,6.39,0.532,13.355,6.26,16.854l31.849,19.448c6.284,3.837,14.444,2.368,18.995-3.419l48.646-61.851
			C606.69,629.298,604.187,618.543,595.8,614.521z"/>
	</g>
	<g id="SnakeBody">
		<g>
			<path fill="#93C740" d="M526.422,848.661c1.017-0.654,2.04-1.3,3.048-1.968C528.462,847.361,527.439,848.007,526.422,848.661z"/>
		</g>
		<g>
			<path fill="#93C740" d="M518.565,853.542c1.849-1.099,3.683-2.219,5.502-3.361C522.248,851.323,520.414,852.443,518.565,853.542z
				"/>
		</g>
		<g>
			<path fill="#80B041" d="M524.067,850.181c0.792-0.497,1.569-1.015,2.355-1.52C525.636,849.166,524.859,849.684,524.067,850.181z"
				/>
		</g>
		<g>
			<path fill="#673995" d="M206.175,819.389c0.279,0.289,0.577,0.566,0.861,0.854c0.142-0.066,0.297-0.146,0.441-0.216
				C206.952,819.903,206.493,819.716,206.175,819.389z"/>
		</g>
		<path fill="#98CA3E" d="M139.024,579.981c-4.437,0-8.442,0.236-11.943,0.609c-0.231-0.019-0.464-0.028-0.696-0.028
			c-18.248-0.003-34.686,56.284-1.963,92.274c0,0,67.467-45.019,135.984-45.186c-32.335-28.058-80.476-43.662-105.151-46.665
			C149.382,580.271,143.938,579.981,139.024,579.981z"/>
		<path fill="#231F20" d="M277.538,607.907c-37.738-32.746-91.916-49.558-119.125-52.869c-6.521-0.793-13.044-1.196-19.389-1.196
			c-4.435,0-8.791,0.196-12.976,0.583c-7.99,0.084-27.016,3.303-38.843,30.033c-12.371,27.96-12.053,73.046,17.877,105.962
			c5.115,5.626,12.198,8.556,19.352,8.556c5.015,0,10.063-1.438,14.497-4.397c0.581-0.385,62-40.644,121.54-40.79
			c10.898-0.027,20.636-6.812,24.435-17.026S285.77,615.049,277.538,607.907z M139.024,579.981c4.914,0,10.357,0.29,16.232,1.004
			c24.675,3.003,72.815,18.607,105.151,46.665c-68.517,0.167-135.984,45.186-135.984,45.186
			c-32.723-35.99-16.285-92.277,1.963-92.274c0.231,0,0.464,0.009,0.696,0.028C130.583,580.218,134.587,579.981,139.024,579.981z"/>
		<path fill="none" d="M642.031,809.991c-9.885-7.752-18.129-10.852-32.221-18.06c-0.001,0-0.002,0-0.003,0
			c0,0-15.38,16.694-17.188,18.781c-13.566,15.665-28.714,29.243-45.806,40.965c-0.754,0.517-1.521,1.014-2.279,1.523
			c-1.123,0.754-2.24,1.515-3.375,2.253c-1.072,0.697-2.162,1.371-3.246,2.055c-0.836,0.527-1.665,1.067-2.508,1.587
			c-1.938,1.192-3.891,2.362-5.858,3.507c2.897,0.945,5.896,1.888,8.991,2.816c3.096,0.93,6.289,1.847,9.58,2.743
			c16.273,4.432,33.373,6.982,50.224,6.982c27.04,0,53.438-6.572,74.784-22.466c-1.737-3.525-3.502-7.076-3.871-8.143
			C662.804,831.147,653.761,819.19,642.031,809.991z"/>
		<path fill="none" d="M175.579,821.387c0.427,1.18,0.882,2.344,1.352,3.499c-3.096-10.667-5.025-21.708-5.718-32.414
			C170.267,802.213,172.227,812.127,175.579,821.387z"/>
		<path fill="#93C740" d="M696.005,829.002c17.238-24.695,22.712-57.573,12.385-86.107c-4.836-13.358-13.072-24.275-23.322-33.072
			c-13.871-11.906-31.428-19.927-49.217-24.854c-17.219-4.769-35.287-7.043-53.342-7.043c-15.168,0-30.324,1.604-44.971,4.684
			c-9.4,1.977-18.68,4.519-27.801,7.531c-54.581,18.029-103.65,48.822-155.234,73.554c-32.179,15.429-66.377,29.411-102.335,32.067
			c-3.454,0.255-6.9,0.372-10.315,0.372c-36.13,0-68.758-13.04-68.758-13.04c-0.968,3.089-1.575,6.225-1.882,9.378
			c0.693,10.706,2.622,21.747,5.718,32.414c12.607,30.988,40.526,53.18,73.495,59.887c10.644,2.166,21.458,3.151,32.326,3.151
			c71.108,0,144.871-42.141,193.656-71.474c29.459-17.711,64.656-28.946,99.271-28.946c5.308,0,10.601,0.264,15.856,0.809
			c6.055,0.629,12.057,1.823,17.382,3.363c0.296,0.086,0.599,0.168,0.891,0.256c0.001,0,0.002,0,0.003,0
			c14.092,7.208,22.336,10.308,32.221,18.06c11.73,9.199,20.773,21.156,27.225,34.545c0.369,1.066,2.134,4.617,3.871,8.143
			C681.652,846.331,689.375,838.502,696.005,829.002z"/>
		<path fill="none" d="M685.068,709.822c-13.871-11.906-31.428-19.927-49.217-24.854c-17.219-4.769-35.287-7.043-53.342-7.043
			c-15.168,0-30.324,1.604-44.971,4.684c-9.4,1.977-18.68,4.519-27.801,7.531c-54.581,18.029-103.65,48.822-155.234,73.554
			c-32.179,15.429-66.377,29.411-102.335,32.067c-3.454,0.255-6.9,0.372-10.315,0.372c-36.13,0-68.758-13.04-68.758-13.04
			c-0.968,3.089-1.575,6.225-1.882,9.378c-0.946,9.741,1.014,19.655,4.366,28.915c0.427,1.18,0.882,2.344,1.352,3.499
			c12.607,30.988,40.526,53.18,73.495,59.887c10.644,2.166,21.458,3.151,32.326,3.151c71.108,0,144.871-42.141,193.656-71.474
			c29.459-17.711,64.656-28.946,99.271-28.946c5.308,0,10.601,0.264,15.856,0.809c6.055,0.629,12.057,1.823,17.382,3.363
			c0.296,0.086,0.599,0.168,0.891,0.256c0,0-0.084,0.091-0.228,0.247c2.241,0.371,4.845,0.947,7.805,1.822
			c0,0,18.682,10.378,23.83,14.998c6.457,5.546,12.447,11.585,17.91,18.112c3.803,5.556,7.209,11.362,10.131,17.425
			c0.369,1.066,2.135,4.617,3.871,8.143l0,0c8.525-6.348,16.248-14.177,22.879-23.677c17.238-24.695,22.712-57.573,12.385-86.107
			C703.554,729.536,695.318,718.619,685.068,709.822z"/>
		<path fill="#80B041" d="M659.125,827.111c-5.463-6.527-11.453-12.566-17.91-18.112c-5.148-4.62-23.83-14.998-23.83-14.998
			c-2.96-0.875-5.563-1.451-7.805-1.822c-1.887,2.048-15.28,16.595-16.96,18.534c-13.566,15.665-28.714,29.243-45.806,40.965
			c-0.754,0.517-1.521,1.014-2.279,1.523c-1.123,0.754-2.24,1.515-3.375,2.253c-1.072,0.697-2.162,1.371-3.246,2.055
			c-0.836,0.527-1.665,1.067-2.508,1.587c-1.938,1.192-3.891,2.362-5.858,3.507c2.897,0.945,5.896,1.888,8.991,2.816
			c3.096,0.93,6.289,1.847,9.58,2.743c16.273,4.432,33.373,6.982,50.224,6.982c27.04,0,53.438-6.572,74.784-22.466
			c-1.736-3.525-3.502-7.076-3.871-8.143C666.333,838.474,662.927,832.667,659.125,827.111z"/>
		<path fill="#231F20" d="M732.968,733.998c-6.101-16.854-16.488-31.662-30.875-44.011c-15.746-13.516-35.687-23.68-59.266-30.209
			c-19.148-5.303-39.443-7.992-60.318-7.992c-16.861,0-33.801,1.764-50.349,5.243c-10.078,2.119-20.381,4.908-30.622,8.291
			c-39.142,12.93-75.227,31.885-110.123,50.216c-15.79,8.294-32.118,16.871-48.213,24.588
			c-27.679,13.271-60.369,27.162-92.96,29.569c-2.7,0.2-5.523,0.301-8.39,0.301c-29.951,0-58.065-10.788-59.087-11.186
			c-3.13-1.264-6.426-1.89-9.718-1.89c-3.817-0.001-7.628,0.843-11.168,2.514c-6.602,3.116-11.543,8.875-13.727,15.841
			c-5.255,16.763-4.297,35.271,2.848,55.01c7.346,20.295,20.08,38.453,36.824,52.512c16.368,13.742,36.212,23.283,57.39,27.592
			c11.989,2.439,24.618,3.676,37.537,3.676c35.191,0,72.945-8.771,115.42-26.817c33.608-14.278,63.937-31.697,91.706-48.393
			c19.171-11.525,40.067-19.381,60.688-22.976c-5.873,5.054-12.032,9.784-18.535,14.243c-0.355,0.243-0.71,0.477-1.064,0.712
			c-0.334,0.222-0.669,0.443-1.002,0.667l-0.861,0.579c-0.728,0.491-1.455,0.982-2.191,1.461c-0.66,0.43-1.326,0.846-1.992,1.264
			l-0.946,0.595c-0.352,0.222-0.702,0.444-1.052,0.668c-0.404,0.259-0.81,0.519-1.219,0.771c-1.757,1.081-3.541,2.149-5.302,3.175
			c-8.904,5.181-13.935,15.109-12.847,25.354s8.093,18.895,17.887,22.089c3.187,1.039,6.41,2.05,9.581,3.002
			c3.392,1.018,6.833,2.003,10.228,2.928c19.252,5.243,38.461,7.901,57.093,7.901c23.69,0,45.501-4.307,64.825-12.799
			c22.201-9.757,40.461-24.736,54.271-44.521c10.865-15.564,18.107-33.786,20.945-52.696
			C741.321,771.704,739.448,751.9,732.968,733.998z M696.005,829.002c-6.631,9.5-14.354,17.329-22.879,23.677
			c-21.346,15.894-47.744,22.466-74.784,22.466c-16.851,0-33.95-2.551-50.224-6.982c-3.291-0.896-6.484-1.813-9.58-2.743
			c-3.096-0.929-6.094-1.871-8.991-2.816c1.968-1.145,3.921-2.314,5.858-3.507c0.843-0.52,1.672-1.06,2.508-1.587
			c1.084-0.684,2.174-1.357,3.246-2.055c1.135-0.738,2.252-1.499,3.375-2.253c0.758-0.51,1.525-1.007,2.279-1.523
			c17.092-11.722,32.239-25.3,45.806-40.965c1.68-1.939,15.073-16.486,16.96-18.534c0.144-0.156,0.228-0.247,0.228-0.247
			c-0.292-0.088-0.595-0.17-0.891-0.256c-5.325-1.54-11.327-2.734-17.382-3.363c-5.256-0.545-10.549-0.809-15.856-0.809
			c-34.614,0-69.812,11.235-99.271,28.946c-48.786,29.333-122.548,71.474-193.656,71.474c-10.867,0-21.682-0.985-32.326-3.151
			c-32.969-6.707-60.888-28.898-73.495-59.887c-0.47-1.155-0.925-2.319-1.352-3.499c-3.352-9.26-5.312-19.174-4.366-28.915
			c0.307-3.153,0.914-6.289,1.882-9.378c0,0,32.628,13.04,68.758,13.04c3.415,0,6.862-0.117,10.315-0.372
			c35.958-2.656,70.156-16.639,102.335-32.067c51.584-24.732,100.653-55.525,155.234-73.554c9.121-3.013,18.4-5.555,27.801-7.531
			c14.646-3.079,29.803-4.684,44.971-4.684c18.055,0,36.123,2.275,53.342,7.043c17.789,4.927,35.346,12.947,49.217,24.854
			c10.25,8.797,18.486,19.714,23.322,33.072C718.717,771.429,713.244,804.307,696.005,829.002z"/>
	</g>
	<g id="PythonMorsels">
		<path fill="#231F20" d="M1.188,989.365h58.567c40.065,0,60.099,16.526,60.099,49.571c0,32.922-20.033,49.381-60.099,49.381H45.401
			v35.026H1.188V989.365z M76.024,1038.937c0-8.804-5.55-13.205-16.651-13.205H45.401v26.221h13.972
			C70.475,1051.952,76.024,1047.616,76.024,1038.937z"/>
		<path fill="#231F20" d="M209.813,1123.344h-43.83V1077.6l-50.912-88.234h49.955l22.968,50.72l22.968-50.72h49.955l-51.104,88.234
			V1123.344z"/>
		<path fill="#231F20" d="M262.255,989.365h115.987v38.662h-35.983v95.316h-44.021v-95.316h-35.982V989.365z"/>
		<path fill="#231F20" d="M471.259,989.365h44.021v133.979h-44.021v-47.658h-36.365v47.658h-44.213V989.365h44.213v47.658h36.365
			V989.365z"/>
		<path fill="#231F20" d="M548.964,1106.597c-12.631-13.207-18.947-29.954-18.947-50.242s6.316-37.035,18.947-50.242
			c12.633-13.207,30.496-19.81,53.592-19.81c23.094,0,40.959,6.603,53.592,19.81s18.947,29.954,18.947,50.242
			s-6.314,37.035-18.947,50.242c-12.633,13.206-30.498,19.81-53.592,19.81C579.46,1126.406,561.597,1119.803,548.964,1106.597z
			 M622.558,1078.365c4.785-5.359,7.176-12.695,7.176-22.011c0-9.312-2.391-16.652-7.176-22.011
			c-4.785-5.359-11.455-8.038-20.002-8.038c-8.551,0-15.217,2.679-20.002,8.038c-4.783,5.358-7.176,12.698-7.176,22.011
			c0,9.315,2.393,16.651,7.176,22.011c4.785,5.358,11.451,8.038,20.002,8.038C611.103,1086.403,617.773,1083.724,622.558,1078.365z"
			/>
		<path fill="#231F20" d="M734.046,1123.344h-44.213V989.365h37.322l45.361,62.97c-0.766-6.379-1.148-14.035-1.148-22.968v-40.002
			h44.213v133.979h-37.322l-45.361-62.778c0.766,6.382,1.148,13.909,1.148,22.585V1123.344z"/>
		<path fill="#231F20" d="M100.719,1171.506h34.643V1289.8H97.339v-54.078l-19.434,30.081H57.457l-19.434-30.249v54.246H0v-118.294
			h34.644l32.953,51.712L100.719,1171.506z"/>
		<path fill="#231F20" d="M165.104,1275.013c-11.153-11.66-16.73-26.447-16.73-44.359c0-17.914,5.577-32.7,16.73-44.36
			c11.153-11.661,26.925-17.491,47.317-17.491c20.39,0,36.163,5.83,47.316,17.491c11.154,11.66,16.73,26.446,16.73,44.36
			c0,17.912-5.576,32.699-16.73,44.359c-11.153,11.66-26.927,17.49-47.316,17.49
			C192.028,1292.503,176.257,1286.673,165.104,1275.013z M230.08,1250.087c4.225-4.732,6.337-11.209,6.337-19.434
			c0-8.223-2.112-14.703-6.337-19.435s-10.113-7.098-17.659-7.098c-7.55,0-13.436,2.366-17.66,7.098s-6.337,11.212-6.337,19.435
			c0,8.225,2.112,14.701,6.337,19.434c4.225,4.731,10.11,7.098,17.66,7.098C219.967,1257.185,225.855,1254.818,230.08,1250.087z"/>
		<path fill="#231F20" d="M328.518,1289.8H289.48v-118.294h54.922c6.76,0,12.954,0.677,18.589,2.028
			c5.633,1.352,10.927,3.549,15.886,6.59c4.956,3.043,8.843,7.381,11.66,13.013c2.814,5.635,4.225,12.337,4.225,20.11
			c0,16.787-6.76,28.559-20.278,35.318l30.418,41.234h-42.924l-24.334-34.981h-9.126V1289.8z M328.518,1203.276v22.307h15.04
			c3.718,0,6.646-1.014,8.788-3.042c2.139-2.028,3.21-4.731,3.21-8.111s-1.071-6.083-3.21-8.112
			c-2.142-2.027-5.07-3.041-8.788-3.041H328.518z"/>
		<path fill="#231F20" d="M408.619,1205.474c0-11.941,4.364-21.039,13.097-27.293c8.729-6.252,19.856-9.379,33.375-9.379
			c16.786,0,31.264,3.27,43.43,9.802v33.798c-12.166-7.773-25.236-11.547-39.206-11.322c-6.986,0-10.477,1.748-10.477,5.238
			c0,1.58,1.069,3.016,3.21,4.311c2.14,1.296,4.872,2.449,8.196,3.464c3.322,1.014,7.04,2.112,11.153,3.295
			c4.111,1.183,8.223,2.733,12.338,4.647c4.109,1.917,7.828,4.17,11.152,6.76c3.322,2.593,6.055,6.084,8.195,10.477
			c2.139,4.395,3.211,9.354,3.211,14.872c0,25.575-16.561,38.36-49.682,38.36c-18.026,0-33.688-3.718-46.979-11.153v-35.319
			c14.081,9.24,28.445,13.857,43.093,13.857c4.956,0,8.42-0.449,10.393-1.352c1.969-0.9,2.958-2.365,2.958-4.394
			c0-1.802-1.41-3.464-4.225-4.985c-2.817-1.521-6.366-2.814-10.646-3.887c-4.282-1.069-8.9-2.619-13.857-4.647
			c-4.958-2.028-9.576-4.335-13.856-6.929c-4.283-2.59-7.832-6.337-10.646-11.238
			C410.026,1217.556,408.619,1211.895,408.619,1205.474z"/>
		<path fill="#231F20" d="M519.136,1171.506h89.566v30.757h-50.529v13.688h44.445v28.729h-44.445v14.026h51.543v31.095h-90.58
			V1171.506z"/>
		<path fill="#231F20" d="M624.248,1171.506h39.037v84.157h50.529v34.137h-89.566V1171.506z"/>
		<path fill="#231F20" d="M721.585,1205.474c0-11.941,4.363-21.039,13.096-27.293c8.73-6.252,19.857-9.379,33.375-9.379
			c16.787,0,31.264,3.27,43.432,9.802v33.798c-12.168-7.773-25.238-11.547-39.207-11.322c-6.986,0-10.477,1.748-10.477,5.238
			c0,1.58,1.07,3.016,3.211,4.311c2.139,1.296,4.871,2.449,8.195,3.464c3.322,1.014,7.041,2.112,11.154,3.295
			c4.111,1.183,8.223,2.733,12.336,4.647c4.111,1.917,7.828,4.17,11.154,6.76c3.32,2.593,6.055,6.084,8.195,10.477
			c2.139,4.395,3.211,9.354,3.211,14.872c0,25.575-16.561,38.36-49.684,38.36c-18.025,0-33.688-3.718-46.979-11.153v-35.319
			c14.08,9.24,28.445,13.857,43.092,13.857c4.957,0,8.42-0.449,10.393-1.352c1.971-0.9,2.957-2.365,2.957-4.394
			c0-1.802-1.41-3.464-4.225-4.985c-2.816-1.521-6.365-2.814-10.646-3.887c-4.281-1.069-8.9-2.619-13.857-4.647
			s-9.576-4.335-13.855-6.929c-4.283-2.59-7.832-6.337-10.646-11.238C722.992,1217.556,721.585,1211.895,721.585,1205.474z"/>
	</g>
</g>
</svg>
