<?xml version="1.0" encoding="utf-8"?>
<!-- Generator: Adobe Illustrator 15.0.2, SVG Export Plug-In . SVG Version: 6.00 Build 0)  -->
<!DOCTYPE svg PUBLIC "-//W3C//DTD SVG 1.1//EN" "http://www.w3.org/Graphics/SVG/1.1/DTD/svg11.dtd" [
	<!ENTITY ns_extend "http://ns.adobe.com/Extensibility/1.0/">
	<!ENTITY ns_ai "http://ns.adobe.com/AdobeIllustrator/10.0/">
	<!ENTITY ns_graphs "http://ns.adobe.com/Graphs/1.0/">
	<!ENTITY ns_vars "http://ns.adobe.com/Variables/1.0/">
	<!ENTITY ns_imrep "http://ns.adobe.com/ImageReplacement/1.0/">
	<!ENTITY ns_sfw "http://ns.adobe.com/SaveForWeb/1.0/">
	<!ENTITY ns_custom "http://ns.adobe.com/GenericCustomNamespace/1.0/">
	<!ENTITY ns_adobe_xpath "http://ns.adobe.com/XPath/1.0/">
]>
<svg version="1.1" id="Layer_1" xmlns:x="&ns_extend;" xmlns:i="&ns_ai;" xmlns:graph="&ns_graphs;"
	 xmlns="http://www.w3.org/2000/svg" xmlns:xlink="http://www.w3.org/1999/xlink" x="0px" y="0px" width="255.318px"
	 height="220.942px" viewBox="0 0 255.318 220.942" enable-background="new 0 0 255.318 220.942" xml:space="preserve">
<metadata>
	<sfw  xmlns="&ns_sfw;">
		<slices></slices>
		<sliceSourceBounds  x="372.555" y="-411" width="255.318" height="220.942" bottomLeftOrigin="true"></sliceSourceBounds>
	</sfw>
</metadata>
<g>
	<path fill="#663399" d="M60.863,65.797C60.863,28.906,90.77,0,127.66,0c36.889,0,66.795,28.906,66.795,65.797
		c0,39.556-29.904,66.793-66.795,66.793S60.863,105.353,60.863,65.797z"/>
	<path fill="#FFFFFF" d="M128.936,114.384c-6.746,0.001-13.916-2.813-21.314-8.364c-4.363-3.275-6.869-5.855-9.078-8.131
		c-1.914-1.972-3.723-3.833-6.58-5.978c-2.768-2.077-5.744-3.341-7.605-3.83c-0.977-0.257-1.76-0.99-2.08-1.948
		c-0.322-0.958-0.139-2.014,0.486-2.809c3.072-3.904,6.537-5.884,10.295-5.884c2.719,0,5.516,1.064,8.312,3.162
		c2.613,1.961,5.002,4.352,7.576,7.243l38.387-33.354c1.066-0.926,2.637-0.984,3.768-0.135l9.445,7.088
		c0.725,0.544,1.166,1.386,1.197,2.292c0.033,0.905-0.346,1.777-1.029,2.372l-38.98,33.899c2.08,1.222,3.969,1.82,5.727,1.82
		c3.352,0,6.641-2.21,10.053-6.757c1.42-1.895,1.58-2.715,1.686-3.259c0.082-0.42,0.193-0.996,0.557-1.611
		c0.432-0.736,1.158-1.252,1.996-1.419c0.836-0.169,1.707,0.03,2.389,0.542c2.965,2.224,4.688,4.526,5.27,7.039
		c0.652,2.816-0.164,5.773-2.426,8.789C142.516,111.104,136.105,114.383,128.936,114.384z"/>
	<path fill="#FFFFFF" d="M108.066,76.866c-0.631,0-1.266-0.199-1.801-0.601l-9.445-7.088c-0.725-0.544-1.164-1.386-1.197-2.292
		c-0.031-0.905,0.346-1.777,1.029-2.372l38.982-33.899c-2.08-1.222-3.969-1.82-5.727-1.82c-3.354,0-6.641,2.21-10.053,6.757
		c-1.422,1.895-1.58,2.715-1.686,3.259c-0.082,0.42-0.195,0.996-0.557,1.611c-0.434,0.736-1.16,1.252-1.996,1.419
		c-0.836,0.169-1.705-0.029-2.389-0.542c-2.965-2.224-4.689-4.526-5.271-7.039c-0.652-2.816,0.164-5.773,2.428-8.789
		c4.467-5.955,10.877-9.235,18.049-9.235c6.744,0,13.916,2.814,21.312,8.364c4.365,3.275,6.869,5.855,9.08,8.131
		c1.914,1.972,3.721,3.833,6.578,5.978c2.77,2.077,5.744,3.341,7.605,3.83c0.979,0.257,1.76,0.99,2.082,1.948
		c0.32,0.958,0.137,2.014-0.488,2.809c-3.072,3.904-6.535,5.884-10.295,5.884c-2.719,0-5.516-1.064-8.312-3.162
		c-2.611-1.961-5-4.352-7.576-7.243L110.035,76.13C109.473,76.619,108.77,76.866,108.066,76.866z"/>
</g>
<g>
	<g>
		<path fill="#663399" d="M55.441,177.377c-2.293,1.698-4.756,2.505-7.729,2.505c-2.676,0-5.352-0.764-6.965-2.378
			c-1.273-1.273-1.742-2.888-1.742-5.945v-8.875H35.1v-2.76l10.744-9.555h1.996v6.709h7.092v5.605H47.84v6.71
			c0,2.08,0.807,2.973,2.633,2.973c1.486,0,3.143-0.553,4.969-1.741V177.377z"/>
		<path fill="#663399" d="M68.012,157.079v5.988h0.086c1.57-4.204,4.076-6.37,7.176-6.37c1.699,0,3.398,0.552,5.436,1.741
			l-3.906,8.917c-1.402-1.316-2.549-1.868-3.779-1.868c-2.166,0-3.695,2.123-4.162,4.714v9.3h-8.832v-22.422H68.012z"/>
		<path fill="#663399" d="M106.316,171.262c0,2.081,1.189,2.93,3.312,2.208l-2.293,6.03c-1.357,0.297-2.42,0.382-3.82,0.382
			c-3.398,0-4.969-1.062-5.691-3.864c-2.08,2.591-4.586,3.864-7.645,3.864c-3.736,0-7.643-1.953-7.643-8.493v-14.311h8.832v12.146
			c0,2.378,0.807,3.397,2.633,3.397c1.316,0,2.336-0.68,3.482-2.294v-13.249h8.832V171.262z"/>
		<path fill="#663399" d="M130.652,177.377c-2.293,1.698-4.756,2.505-7.729,2.505c-2.676,0-5.352-0.764-6.965-2.378
			c-1.273-1.273-1.742-2.888-1.742-5.945v-8.875h-3.906v-2.76l10.744-9.555h1.996v6.709h7.092v5.605h-7.092v6.71
			c0,2.08,0.807,2.973,2.633,2.973c1.486,0,3.143-0.553,4.969-1.741V177.377z"/>
		<path fill="#663399" d="M135.154,150.54h8.834v9.385c2.08-2.251,4.203-3.228,7.176-3.228c4.375,0,7.686,2.378,7.686,8.238V179.5
			h-8.832v-12.23c0-2.08-0.934-3.312-2.59-3.312c-1.273,0-2.422,0.764-3.439,2.208V179.5h-8.834V150.54z"/>
		<path fill="#663399" d="M165.393,165.445h-3.439v-5.605h3.439v-1.316c0-5.351,3.396-8.366,9.002-8.366
			c1.402,0,2.633,0.17,3.822,0.468v5.859c-0.637-0.212-0.977-0.297-1.486-0.297c-1.742,0-2.506,0.935-2.506,3.015v0.638h3.822v5.605
			h-3.822V179.5h-8.832V165.445z"/>
		<path fill="#663399" d="M204.971,171.262c0,2.081,1.189,2.93,3.312,2.208l-2.293,6.03c-1.359,0.297-2.422,0.382-3.822,0.382
			c-3.396,0-4.969-1.062-5.689-3.864c-2.082,2.591-4.588,3.864-7.645,3.864c-3.736,0-7.645-1.953-7.645-8.493v-14.311h8.834v12.146
			c0,2.378,0.807,3.397,2.633,3.397c1.316,0,2.336-0.68,3.482-2.294v-13.249h8.832V171.262z"/>
		<path fill="#663399" d="M211.387,150.54h8.832V179.5h-8.832V150.54z"/>
	</g>
	<g>
		<path fill="#663399" d="M20.342,209.009c-2.293,1.698-4.756,2.505-7.729,2.505c-2.676,0-5.352-0.764-6.965-2.378
			c-1.273-1.273-1.742-2.888-1.742-5.945v-8.875H0v-2.76l10.744-9.555h1.996v6.709h7.092v5.605H12.74v6.71
			c0,2.08,0.807,2.973,2.633,2.973c1.486,0,3.143-0.553,4.969-1.741V209.009z"/>
		<path fill="#663399" d="M46.969,207.14c-2.463,2.846-6.072,4.374-10.361,4.374c-7.729,0-12.74-5.138-12.74-11.678
			c0-6.582,4.969-11.508,11.594-11.508c6.836,0,12.188,5.478,11.211,13.249h-14.65c0.041,2.293,2.76,4.459,6.156,4.459
			c2.379,0,4.586-0.765,7.178-2.548L46.969,207.14z M39.41,198.265c-0.043-3.312-1.316-5.011-3.865-5.011
			c-2.293,0-4.076,1.486-3.863,5.011H39.41z"/>
		<path fill="#663399" d="M69.943,210.113c-2.93,1.062-4.713,1.401-7.135,1.401c-7.516,0-12.738-4.713-12.738-11.465
			c0-5.605,3.779-11.721,12.484-11.721c2.377,0,4.926,0.382,7.219,1.146v7.432c-1.953-0.892-3.736-1.316-5.605-1.316
			c-3.143,0-5.266,1.783-5.266,4.374c0,2.548,2.25,4.289,5.521,4.289c1.654,0,3.1-0.383,5.52-1.401V210.113z"/>
		<path fill="#663399" d="M74.404,182.171h8.832v9.385c2.082-2.251,4.205-3.228,7.178-3.228c4.373,0,7.686,2.378,7.686,8.238v14.565
			h-8.832v-12.229c0-2.081-0.936-3.312-2.592-3.312c-1.273,0-2.42,0.764-3.439,2.208v13.334h-8.832V182.171z"/>
		<path fill="#663399" d="M103.197,188.71h8.832v2.931c2.422-2.378,4.418-3.312,7.221-3.312c4.926,0,7.686,3.015,7.686,7.983v14.82
			h-8.832V198.86c0-2.251-0.809-3.27-2.549-3.27c-1.4,0-2.549,0.764-3.525,2.42v13.122h-8.832V188.71z"/>
		<path fill="#663399" d="M144.178,188.329c9.555,0,13.207,6.157,13.207,11.593c0,5.945-4.203,11.593-13.121,11.593
			c-9.555,0-13.293-6.114-13.293-11.593C130.971,194.146,134.92,188.329,144.178,188.329z M144.178,204.253
			c2.592,0,4.375-1.784,4.375-4.332s-1.783-4.331-4.375-4.331c-2.59,0-4.373,1.783-4.373,4.331S141.588,204.253,144.178,204.253z"/>
		<path fill="#663399" d="M161.676,182.171h8.832v28.961h-8.832V182.171z"/>
		<path fill="#663399" d="M187.963,188.329c9.555,0,13.207,6.157,13.207,11.593c0,5.945-4.203,11.593-13.121,11.593
			c-9.555,0-13.293-6.114-13.293-11.593C174.756,194.146,178.705,188.329,187.963,188.329z M187.963,204.253
			c2.592,0,4.375-1.784,4.375-4.332s-1.783-4.331-4.375-4.331c-2.59,0-4.373,1.783-4.373,4.331S185.373,204.253,187.963,204.253z"/>
		<path fill="#663399" d="M227.756,193.127H224.4c0.977,1.443,1.359,2.633,1.359,4.331c0,2.038-0.766,3.609-2.039,4.884
			c-3.439,3.439-7.135,1.741-7.135,3.651c0,1.911,5.564,0.553,8.791,3.78c1.104,1.104,1.656,2.378,1.656,3.906
			c0,3.737-3.695,7.262-11.975,7.262c-8.621,0-10.957-2.718-10.957-5.69c0-2.378,2.123-4.544,5.562-5.011v-0.085
			c-1.273-0.552-1.867-1.444-1.867-2.633c0-1.359,0.934-2.421,2.633-3.058c-3.568-1.359-5.436-3.864-5.436-7.262
			c0-4.034,3.143-8.875,11.932-8.875h10.83V193.127z M215.398,217.502c2.973,0,4.543-0.935,4.543-2.761
			c0-1.868-1.783-3.143-4.543-3.143c-2.549,0-4.248,1.189-4.248,3.016C211.15,216.313,212.213,217.502,215.398,217.502z
			 M215.312,200.261c2.123,0,3.738-1.401,3.738-3.27c0-1.869-1.529-3.186-3.695-3.186c-2.08,0-3.652,1.401-3.652,3.271
			C211.703,198.86,213.275,200.261,215.312,200.261z"/>
		<path fill="#663399" d="M237.779,207.863l-8.875-19.152h9.512l4.119,10.999l4.502-10.999h8.281l-15.5,32.104h-8.367
			L237.779,207.863z"/>
	</g>
</g>
</svg>
